<?xml version="1.0" encoding="UTF-8"?><svg id="Layer_2" xmlns="http://www.w3.org/2000/svg" viewBox="0 0 44.98 33.94"><defs><style>.cls-1{fill:#040403;stroke-width:0px;}</style></defs><g id="Layer_1-2"><path class="cls-1" d="M20.83,19.53h5.39c1.38,0,2.5-1.12,2.5-2.5s-1.12-2.5-2.5-2.5h-5.5l10.26-10.26c.98-.98.98-2.56,0-3.54-.98-.98-2.56-.98-3.54,0l-13.79,13.79h-5.17l10.26-10.26c.98-.98.98-2.56,0-3.54-.98-.98-2.56-.98-3.54,0L.73,15.2c-.98.98-.98,2.56,0,3.54l14.47,14.47c.49.49,1.13.73,1.77.73s1.28-.24,1.77-.73c.98-.98.98-2.56,0-3.54l-10.14-10.14h5.17l13.68,13.68c.49.49,1.13.73,1.77.73s1.28-.24,1.77-.73c.98-.98.98-2.56,0-3.54l-10.14-10.14Z"/><path class="cls-1" d="M42.48,14.52h-10c-1.38,0-2.5,1.12-2.5,2.5s1.12,2.5,2.5,2.5h10c1.38,0,2.5-1.12,2.5-2.5s-1.12-2.5-2.5-2.5Z"/></g></svg>