<?xml version="1.0" encoding="UTF-8"?><defs><style>.cls-4{fill:#826aed !important;}.cls-2{stroke-width:0px;}</style></defs><svg id="Layer_2" xmlns="http://www.w3.org/2000/svg" viewBox="0 0 99.88 234.95"><defs><style>.cls-4{stroke-width:0px;}</style></defs><g id="Layer_2-2"><path class="cls-4" d="M28.15,144.38c-4.01-3.59-7.58-7.54-10.3-12.22-2.28-3.93-3.93-8.07-4.51-12.6-.12-.94-.52-1.76-.93-2.59-1.86-3.69-3.05-7.57-3.29-11.72,1.09,3.13,1.61,6.48,3.58,9.33-.14-3.46,0-6.88.25-10.31.4-5.32,1.65-10.44,3.45-15.43,2.22-6.15,4.53-12.27,6.77-18.42,1.08-2.97,1.23-6.04.73-9.15-.1,2.98-.57,5.9-1.57,9.27-1.15-2.66-3.38-3.81-5.06-5.52-2.38-2.42-3.67-5.33-3.79-8.71-.14-3.92.52-7.93-2.02-11.97,2.72,1.76,4.9,3.11,7.03,4.56,6.63,4.49,8.49,9.57,7.06,17.43-1.36,7.5-4.6,14.31-7.17,21.38-1.47,4.03-2.91,8.08-3.63,12.34-.14.84-.3,1.67,0,2.8,2.41-8.66,7.75-15.16,13.53-21.4,5.9-6.36,11.97-12.71,15.31-20.85,6.25-15.24,7.78-30.69.43-46.11-1.31-2.75-3.06-5.25-5.01-7.61-.48-.58-.93-1.18-1.25-1.88,1.96,1.36,3.5,3.11,4.88,5.01,4.98,6.84,7.59,14.53,7.63,22.96.05,9.92-1.32,19.6-5,28.93-2.63,6.67-6.8,12.2-11.51,17.43-.3.33-.6.67-1.19,1.35,2.49-.61,4.49-1.37,6.62-1.65,7.51-.99,14.16,3.89,14.91,11.42.5,5.04-1.41,9.31-5.78,12.05-4.17,2.62-8.59,2.81-12.95.23-1.21-.71-2.2-1.67-3.06-3.46,2.68,2.13,5.29,3.07,8.26,3.06,6.69-.03,11.82-5.41,11.28-11.91-.53-6.33-6.45-10.87-12.91-9.91-4.47.67-8.28,2.54-11.36,5.92-6.92,7.58-11.22,16.45-10.89,26.71.48,14.71,8.3,25.1,21.12,31.91.1.05.25,0,.86-.05-3.43-2.09-6.32-4.26-9.01-6.71-2.82-2.56-5.12-5.53-7.06-8.79-1.88-3.17-3.33-6.52-3.99-10.16,6.62,18.29,24.38,28.2,38.63,34.55-1.61-1.6-3.28-2.47-4.83-3.5-3.52-2.36-7.18-4.54-10.24-7.49-7.97-7.67-11.34-16.87-8.99-27.89.11-.51.12-1.06.75-1.65-.07,1.31-.17,2.43-.17,3.54,0,1.12.11,2.25.16,3.37.35,9.56,5.02,16.29,13.34,20.76,5,2.69,10.34,4.75,14.9,8.25,8.77,6.73,15.3,15.01,16.71,26.23,2.53,20.04-3.69,36.69-20.35,48.79-8.93,6.49-18.99,10.03-30.05,10.62-.46.02-.93.02-1.39,0-.19,0-.39-.05-.94-.13,12.65-2.59,23.41-7.96,31.97-17.37-3.48,1.35-7.03,2.22-10.73,2.59-13.34,1.32-25.65-7.55-28.21-20.6-1.8-9.2,1.16-17.08,7.35-23.89,7.68-8.46,17.38-11.67,28.57-10.91,2.39.16,4.58,1.14,7.05,1.62-1.98-1.62-3.93-3.29-5.95-4.86-3.57-2.77-7.55-4.87-11.56-6.91-5.78-2.95-11.33-6.26-16.53-10.15l.04.05ZM45.69,216.39c.84-.04,2.05,0,3.22-.16,8.55-1.14,15.49-5.02,18.97-13.11,4.84-11.26,3.21-22.23-2.99-32.63-.38-.64-.86-1.13-1.55-1.47-11.9-5.93-28.25-1.54-35.36,7.75-4.07,5.31-7.06,10.94-6.5,17.81,1.1,13.34,10.43,21.79,24.2,21.82ZM76.66,177.06c-.02-.25-.03-.5-.08-.74-.08-.45-.19-.9-.29-1.35-2.6-12.21-9.86-20.98-20.27-27.41-3.37-2.08-7.09-3.56-10.41-5.74-1.35-.89-2.74-1.72-4.1-2.57.78,1.2,1.77,2.12,2.77,3.04,3.75,3.47,8.37,5.82,12.18,9.19,8.26,7.29,15.98,15.04,20.19,25.6Z"/><path class="cls-4" d="M65.14,92.66c2.98.08,5.77,0,8.42-1.05-2.68.17-5.34.52-8.68-.01,2.4-1.28,3.35-3.17,4.74-4.68,2.87-3.13,6.56-4.59,10.71-4.93,1.77-.14,3.57-.03,5.35,0,2.03.04,3.92-.4,5.83-1.33-2.59,4.27-4.12,9.23-7.98,12.66-5.16,4.58-12.93,4.29-18.38-.67Z"/><path class="cls-4" d="M81.97,157.86c-2.4-1.89-4.6-3.67-6.85-5.4-4.16-3.19-6.16-7.52-6.41-12.64-.17-3.49-.03-6.99-.03-10.93,1.67,4.05,4.81,6.17,8.02,8.22,4.76,3.03,7.91,7.03,7.38,13.02-.21,2.36-.72,4.7-2.28,6.65-.26.32.12.6.17,1.08Z"/><path class="cls-4" d="M72.94,50.71c-3.91.83-6.32,2.88-8.14,5.7-3.58,5.55-8.54,8.28-15.25,7.49-1.35-.16-2.7.41-4.07.03,5.3-14.55,11.01-17.7,27.46-13.22Z"/><path class="cls-4" d="M71.07,79.26c-2.97-.64-5.64-.09-8.3.75-4.23,1.32-8.26.87-12.3-.99-2.7-1.24-5.42-2.86-8.74-2.2.9-.17.82-1.02,1.2-1.54,5.74-8.1,15.34-8.6,21.16-3.21,2.45,2.27,4.66,4.79,6.97,7.2Z"/><path class="cls-4" d="M28.35,169.3c.9-.1,1.8-.19,2.79-.3-7.98,8.4-18.63,7.19-25.7-3.29,2.7,1.21,5.05.42,7.34-.73,3.41-1.71,6.93-2.41,10.76-1.63,3.22.66,5.41,2.83,8.04,4.92-1.25.29-2.25.53-3.24.76,0,.09,0,.18.01.27Z"/><path class="cls-4" d="M65.26,118.77c-.83,3.7-.63,7.48-1.35,11.15-1.05,5.34-3.73,9.39-8.77,11.71-.57.26-1.06.69-1.62,1.06-.83-.64-.03-1.64-.48-2.39-.67-.02-.02.81-.54.89-2.76-4.42-1.97-10.08,2-14.11,1.31-1.33,2.81-2.4,4.42-3.32,2.34-1.35,4.7-2.67,6.34-4.99Z"/><path class="cls-4" d="M21.29,0c3.34,1.65,6.29,2.98,9.11,4.54,6.09,3.36,8.44,8.13,7.58,14.98-.12.95-.4,1.34-1.52,1.11-6.89-1.35-10.07-4.44-11.54-11.3-.34-1.61-.75-3.21-1.18-4.8-.42-1.54-1.34-2.84-2.44-4.53Z"/><path class="cls-4" d="M12.63,98.04c-.84-.48-1.41-1-2.2-1.25-4.92-1.58-7.56-5.46-7.23-10.72.16-2.59.29-5.12-1.19-7.49,10.06,2.22,13.21,7.99,10.62,19.46Z"/><path class="cls-4" d="M26.74,72.93c1.38-2.04,1.2-4.28,1.11-6.44-.19-4.25,1.05-7.94,3.88-11.11,1.01-1.14,1.78-2.45,2.76-4.32.29,3.11,1.58,5.37,2.17,7.83,1.16,4.8-1.3,9.82-5.94,12.27-1.28.67-2.64,1.18-3.97,1.77Z"/><path class="cls-4" d="M26.68,101.49c-1.09,2.73-.48,5.23,1.23,7.3,3.26,3.96,4.47,8.32,3.18,13.39-3.88-.71-7.3-2.18-8.66-6.47-1.47-4.65.2-10.45,4.25-14.22Z"/><path class="cls-4" d="M79.47,158.85c3.58,4.13,5.2,9.09,5.72,14.33,1.55,15.66-3.39,29.26-13.56,41.09-.17.2-.36.38-.57.55-.07.06-.2.04-.7.13,6.04-8.33,9.93-17.33,12.06-27.1,2.18-9.99,1.34-19.66-2.96-29.01Z"/><path class="cls-4" d="M36.3,22.45c8.37,2.45,12.32,7.59,11.41,16.19-1.13-1.67-3.03-1.97-4.71-2.7-4.17-1.81-5.89-4.4-5.79-8.93.03-1.51-.08-2.99-.91-4.57Z"/><path class="cls-4" d="M49.34,111.5c2.09-1.45,2.93-3.45,3.16-5.9.3-3.2,1.73-5.87,4.09-8.11,2.85-2.7,2.95-3.83,1.03-7.25-.74-1.31-1.57-2.58-2.22-3.92,4.17,4.16,6.48,9.21,5.47,15.1-1.05,6.2-6.28,8.29-11.54,10.07Z"/><path class="cls-4" d="M65.96,34.69c-2.39,7.22-8,9.79-14.84,9.84.87-.79.29-2.38.79-3.75,1.52-4.16,4.06-6.04,8.46-6.08,1.91-.02,3.82,0,5.58,0Z"/><path class="cls-4" d="M99.88,154.32c-2.27,1.92-3.16,4.12-4.36,6.15-1.9,3.22-7.16,4.98-10.53,3.77-.9-.32-.37-.9-.32-1.27.66-4.93,4.1-8.03,9.11-8.26,1.83-.09,3.68.12,6.11-.39Z"/><path class="cls-4" d="M14.1,27.58c4.37-2.95,7.46-7.08,13-6.42,1.93.23,3.74.71,5.51,1.71-.74.56-1.41-.08-2.25.12.7.48,1.32.76.69,1.82-2.11,3.52-5.18,4.96-9.24,3.98-2.36-.57-4.65-1.44-7.72-1.21Z"/><path class="cls-4" d="M76,107.83c-1.16-.18-2.59-.38-4.02-.62-4.88-.82-7.21-3.58-7.27-8.58-.02-1.56.27-3.17-.91-4.52,6.48,2.56,11.44,6.4,12.19,13.72Z"/><path class="cls-4" d="M.69,136.02c1.42.41,2.87.46,4.3.32,4.61-.47,7.64,1.41,8.91,5.92-5.35,1.83-8.2.55-13.21-6.24Z"/><path class="cls-4" d="M36.68,128.8c2.74.28,5.16.49,7.43,1.46,2.45,1.04,4.05,3.76,4.03,6.34,0,.87-.5.59-.87.62-2.83.24-5.2-.58-6.99-2.9-1.29-1.67-2.42-3.42-3.6-5.52Z"/><path class="cls-4" d="M68.17,227.55c5.36-4.45,10.14-9.46,14.08-15.24,3.9-5.72,6.45-12.08,8.48-18.62-2.73,14.48-10.46,25.64-22.57,33.86Z"/><path class="cls-4" d="M28.11,144.33c-.76.78-1.59.25-2.39.13-9.26-1.42-17.49.37-23.93,7.69-.6.68-1.12,1.43-1.79,2.06,1.23-3.05,3.21-5.53,5.99-7.27,5.64-3.54,11.78-4.93,18.39-3.73,1.28.23,2.51.78,3.76,1.18,0,0-.04-.05-.04-.05Z"/><path class="cls-4" d="M37.99,93.5c.16-1.53.98-2.35,2.43-2.37,1.45-.01,2.4.74,2.42,2.25.01,1.52-1.04,2.31-2.39,2.35-1.39.04-2.29-.81-2.46-2.23Z"/><path class="cls-4" d="M45.08,46.44c.95,5.87-1.47,14.4-5.66,20.07,1.49-3.13,2.81-6.32,3.86-9.62,1.09-3.41,1.41-6.93,1.8-10.45Z"/><path class="cls-4" d="M29.18,78.62c-3.59,4.07-7.19,8.14-10.78,12.21,2.3-5.2,6.52-8.71,10.78-12.21Z"/><path class="cls-4" d="M6.56,116.36c1.66,4.46,4.35,8.32,7.03,12.19-3.65-3.31-5.96-7.39-7.03-12.19Z"/><path class="cls-4" d="M46.02,158.55c-4.81-.05-9.58.36-14.56,1.77,2.64-1.88,9.37-2.86,14.56-1.77Z"/><path class="cls-4" d="M27.77,189.48c-1.61-8.42,1.87-14.51,9.7-18.42-1.31,1.74-1.09,3.67-.97,5.54.25,3.98-1.35,6.93-4.77,8.87-1.82,1.03-2.74,2.95-3.96,4.02Z"/><path class="cls-4" d="M61.64,196.85c-3.05,5.04-11.43,6.48-16.88,2.91-5.44-3.57-6.79-10.65-3.04-16.01,3.72-5.31,11.7-6.79,16.65-3.09-8.27-2.44-13.63-1-16.78,4.51-2.34,4.08-1.44,9.29,2.18,12.66,4.61,4.3,10.64,3.97,17.87-.98Z"/></g></svg>