<?xml version="1.0" encoding="UTF-8"?><svg id="Layer_2" xmlns="http://www.w3.org/2000/svg" viewBox="0 0 231.9 414.51"><defs><style>.cls-6{fill:#45caff !important;},.cls-2{stroke-width:0px;}.cls-2{fill:transparent;}</style></defs><g id="Layer_1-2"><path class="cls-6" d="M97.64,218.89c-.44,5.32-2.03,9.97-3.98,14.71-1.68,4.08-2.2,8.67-2.99,13.08-.36,2-.07,4.1-.23,6.14-.68,8.59-5.12,14.06-13.11,17.55-9.05,3.96-17.89,8.54-25.77,14.93,1.84-2.26,3.73-4.48,5.52-6.78,7.99-10.26,15.9-20.57,23.96-30.77,1.43-1.82,1.12-3.36.38-5.17-3.8-9.4-10.39-16.67-18.02-23-6.32-5.24-12.99-10.05-19.5-15.06-.32-.24-.61-.51-.92-.77.11-.2.22-.4.33-.61,3.39,1.42,6.77,2.84,10.62,4.46-5.1-5.4-10.21-10.07-16.11-13.86-2.56-1.64-5.11-3.37-7.35-5.42-6.94-6.34-12.87-13.49-16.81-22.13-.38-.84-.73-1.69-.69-2.78,1.99,3.05,3.85,6.19,6,9.12,2.16,2.94,4.6,5.67,7.25,8.35-6.31-11.22-7.64-23.07-5.31-35.48,2.4-12.76,9.44-22.25,20.36-29.39.82,1.71,1.05,2.8-.54,3.96-15.47,11.28-20.7,32.36-12.97,50.92,5.23,12.57,13.49,22.68,24.31,30.85,6.76,5.1,13.49,10.25,20.04,15.62,5.65,4.63,10.32,10.19,14.49,16.44-.2-1.86-.32-3.73-.63-5.57-.32-1.93-.76-3.85-1.26-5.75-2.41-9.28-7.03-17.48-13.13-24.72-4.78-5.67-10.31-10.71-15.37-16.15-1.38-1.48-2.28-3.4-3.4-5.12.24-.2.48-.4.73-.6,3.83,3.06,7.67,6.11,11.49,9.17,11.62,9.31,21.13,20.22,25.78,34.7.91,2.83,1.45,5.78,2.24,8.97,2.88-7.51,2.25-14.61-1.08-21.51-3.79-7.85-9.28-14.55-14.92-21.11-8.43-9.8-16.71-19.69-22.62-31.34-8.72-17.18-12.58-35.35-11.41-54.56.2-3.22.79-6.46,1.58-9.6,1.72-6.83,1.36-13.31-2.29-19.49,3.07,2.83,4.37,6.48,4.9,10.89,1.23-2.94,2.23-5.6,3.43-8.18,8.86-19.02,23.57-31.42,43.07-38.71,21.21-7.92,42.2-6.81,63.29.33,5.16,1.74,10.44,3.5,15.8,4.17,7.63.96,14.71-1.66,21.14-5.71,4.26-2.68,8.32-5.68,12.55-8.6-2.53,6.02-15.42,13.53-29.46,17.23,16.57,7.31,33.44,8.66,50.78,3.25.05.34.09.67.14,1.01-4.98,1.08-9.93,2.37-14.95,3.18-12.82,2.07-24.96-.9-36.89-5.33-4.06-1.51-8.24-2.71-12.6-4.12,2.2,3.1,4.19,5.91,6.18,8.72-.17.11-.35.23-.52.34-2.02-2.06-3.92-4.27-6.1-6.15-7.72-6.64-17.16-8.9-26.93-10.24-16.03-2.2-31.55-.53-46.42,6.08-.77.34-1.52.74-2.18,1.38,3.7-1.1,7.4-2.17,11.09-3.32,7.54-2.35,15.2-2.22,22.85-.89,8.61,1.5,13.8,7.22,14.99,15.93.56,4.1,1.26,8.19,1.83,11.81-4.09-2.98-9.03-6.02-13.25-9.85-3.03-2.75-5.17-6.5-7.55-9.92-1.04-1.5-1.69-3.27-2.77-5.42,2.45,1.07,4.49,1.95,6.53,2.84.1-.27.21-.53.31-.8-2.95-1.12-5.82-2.73-8.87-3.24-5.28-.88-10.65-.28-15.69,1.54-6.5,2.35-13.32,4.29-19.19,7.78-15.31,9.11-23.92,23.41-28.16,40.35-3.91,15.6-3.12,31.2,1.5,46.6.04.12.22.21.45.41.28-2.46.43-4.89.84-7.27,1.98-11.71,7.84-21.55,15.71-30.05,19.22-20.77,43.09-29.21,71.12-25.23,11.25,1.6,23.47,6.52,29.88,11.28-4.61-1.96-8.98-4.02-13.5-5.69-21.34-7.89-42.09-6.42-62.28,4.03-13.99,7.24-25.05,17.31-32.26,31.56-7.99,15.79-7.28,31.18.73,46.66,5.2,10.05,12.52,18.55,19.45,27.33,6.34,8.03,11.84,16.57,15.64,26.08,2.39,6,5.22,12,6.41,18.27,3.01,15.88-3.69,29.23-18.13,37.74,3.52.25,6.86.32,10.16.75,12.22,1.56,22.9,10.47,25.75,21.33,2.79,10.62-.97,21.73-9.18,27.13-9.51,6.26-22.27,5.79-30.98-1.13-3.12-2.48-5.35-5.74-6.25-9.67,2.79,5.01,6.35,8.17,10.86,10.17,6.62,2.92,13.37,3.02,19.85-.21,10.39-5.18,13.21-19.09,6.03-28.66-8.19-10.93-23.44-14.99-36.19-9.89-11.34,4.54-19.77,12.69-27.62,21.61-6.5,7.39-11.44,15.71-12.61,25.62-.66,5.56-.3,11.25-.22,16.88.01.96.78,2.11,1.53,2.83,7.29,6.97,14.65,13.87,22.29,20.57-8.81-13.42-17.97-26.61-17.56-43.66.33,1.76.61,3.53,1,5.27,2.59,11.47,8.17,21.5,14.77,31.07,5.19,7.53,10.49,15.02,15.21,22.84,4.43,7.33,6.67,15.52,7.04,24.14.04.9-.08,1.81-.11,2.34-1.75-5.54-3.27-11.47-5.49-17.11-3.24-8.21-8.23-15.36-14.8-21.33-7.27-6.6-14.56-13.17-22.27-19.59,1.35,2.9,2.37,6.03,4.13,8.66,4.79,7.17,9.69,14.3,14.94,21.14,6.21,8.09,11.6,16.52,13.8,26.63.53,2.44.66,4.97.68,7.58-5-23.33-22.58-34.62-42.09-44.08.15-.24.3-.48.45-.72,4.91,2.21,9.83,4.43,13.57,6.12-3.15-5.14-7.5-10.98-10.53-17.44-9.12-19.43-7.33-38.04,5.82-55.21,9.24-12.08,20.68-21.55,34.37-28.29,4.44-2.19,8.93-4.37,13.08-7.05,16.51-10.67,21.47-26.25,14.6-45.04-.48-1.32-1.06-2.61-1.59-3.92ZM115.1,311.72c6.64-6.35,6.05-21.17-1.27-29.22-8.15-8.96-25.96-13.29-32.46-7.59,1.32,0,2.38,0,3.44,0,9.03,0,17.25,2.38,24.08,8.52,6.08,5.47,9.3,12.21,8.06,20.56-.39,2.65-1.24,5.23-1.85,7.73ZM83.15,250.95c-4.4,9.22-11.24,16.51-18.72,23.98,11.86-3.07,18.96-12.32,18.72-23.98Z"/><path class="cls-6" d="M57.72,57.4c1.62-6.11.97-11.94.04-17.8-1.99-12.64,2.28-21.55,13.37-27.92,3.04-1.74,6.25-3.19,9.19-5.08,2.14-1.37,3.96-3.22,5.96-4.88-.08.32-.17.72-.28,1.11-1.52,5.4-3.42,10.73-4.47,16.23-1.4,7.38-4.73,13.45-10.22,18.47-3.5,3.21-6.92,6.51-10.92,10.29,1.36-7.2,2.63-13.96,3.77-19.95-2.14,3.76-3.24,8.69-3.84,13.78-.5,4.23-.95,8.46-1.53,12.68-.14,1.05-.71,2.04-1.09,3.06Z"/><path class="cls-6" d="M61.14,255.01c-1.06,1.59-1.89,3.4-3.22,4.73-6.77,6.78-13.69,13.41-20.5,20.15-7.84,7.75-14.65,16.28-19.3,26.36-.42.91-.73,2.2-.4,3.06,1.96,5.17,4.13,10.25,6.63,15.38,1.27-7.92,4.15-14.92,9.77-20.7-5.5,8.77-9.4,18.05-9.12,29.25-4.82-5.65-7.13-11.87-10.03-18.47-2.49,7.59-1.86,14.87-1.89,22.09-.26,0-.53.02-.79.03-.19-4.61-.79-9.26-.46-13.83.28-3.95,1.64-7.81,2.43-11.73.17-.84.14-1.81-.09-2.64-3.62-12.78-4.26-25.61-.46-38.45,1.99-6.73,5.84-12.36,11.36-16.72,3.8-3,8.1-4.42,12.96-2.89,3.11.98,5.13,3.09,5.79,6.28.54,2.61-.62,4.62-2.9,6.41.07-.48.03-.73.14-.85,1.79-1.91,2.54-4.06,1.4-6.56-1.25-2.74-3.53-4.14-6.43-4.45-3.87-.42-7.25.89-10.19,3.36-8.07,6.79-11.43,15.91-12.02,26.02-.34,5.85.47,11.76.81,17.64.04.73.35,1.45.78,2.22,2.13-7.59,5.33-14.57,9.93-20.58-3.03,7.56-6.15,15.35-9.28,23.15.37.24.74.48,1.11.72.21-.37.44-.73.62-1.11,4.37-9.45,10.71-17.48,18.1-24.7,8.14-7.95,16.41-15.75,24.63-23.62.21.16.42.31.63.47Z"/><path class="cls-6" d="M116.85,77.17c4.25,1.71,7.92,3.19,11.57,4.65-2.38-2.7-9.01-5.28-14.67-5.7,2.78-1.55,11.38-2.44,16.05-1.7,8.74,1.39,14.99,6.25,19.21,13.87,2.11,3.8,4.04,7.7,6.32,12.09-5.91-4.77-12.76-4.68-19.34-5.69-7.28-1.11-12.53-5.1-15.91-11.62-.9-1.73-1.87-3.42-3.23-5.91Z"/><path class="cls-6" d="M120.38,114.5c-4.64.47-10.22.89-15.75,1.64-7,.94-13.17-.47-18.59-5.2-2.01-1.75-4.48-2.97-7-4.59h17.96c-6.95-2.1-13.95-1.81-21.17-.95,5.27-2.23,10.37-5.09,15.85-6.54,7.61-2.01,14.27.62,19.68,6.41,3.17,3.39,6.49,6.65,9.03,9.24Z"/><path class="cls-6" d="M87.46,407.96c-1.51-18.08-11-32.09-22.36-45.39-7.22-8.46-13.43-17.75-15.72-29.02-2.69-13.22-1.73-25.92,5.93-37.44,2.12-3.18,5-5.86,7.53-8.77.24.19.47.38.71.56-2.99,4.99-5.99,9.98-8.98,14.97,8.46-6.33,15.61-13.79,21.63-22.36-1.85,6.02-5.43,10.87-9.7,15.18-3.01,3.03-6.13,6-9.52,8.57-3.62,2.76-4.88,6.43-5.29,10.62-1.4,14.34,2.35,27.24,10.91,38.8,5.59,7.56,11.6,14.86,16.55,22.82,5.27,8.48,8.46,17.92,8.54,28.13,0,.77-.02,1.54-.05,2.31-.02.34-.09.67-.14,1Z"/><path class="cls-6" d="M118.66,25.66c.67-.76,1.2-1.37,1.74-1.97-.09-.12-.19-.24-.28-.37-.95.74-1.9,1.47-2.82,2.18,4.39-12.03,11.43-18.88,26.49-15.26,7.78,1.87,8.15,1.96,13.57.87-.78.67-1.23,1.06-1.69,1.43-2.8,2.24-5.82,4.26-8.37,6.75-6.24,6.11-13.63,8.17-22.11,7.02-2.08-.28-4.18-.42-6.53-.66Z"/><path class="cls-6" d="M93,128.1c-3.35,2.2-5.18,5.45-6.48,9.05-3.49,9.71-9.42,13.42-21.74,12.77,2.21-6.92,3.17-14.54,10.55-18.52,3.46-1.87,14.87-4.07,17.66-3.3Z"/><path class="cls-6" d="M53.18,85.47c7.4-14.57,14.06-17.07,32.73-12.25-2.84,2.49-5.72,5.12-8.7,7.61-4.4,3.68-9.45,4.95-15.09,3.76-2.99-.63-5.96-1.01-8.93.88Z"/><path class="cls-6" d="M20.42,139.37c-8.15-5.72-9.82-12.94-4.86-22.02,2-3.67,3.98-7.34,3.76-12.34,2.42,5.27,4.73,9.88,6.67,14.64,1.35,3.3.94,6.66-.77,9.89-1.72,3.23-3.22,6.58-4.79,9.84Z"/><path class="cls-6" d="M66.69,154.51c.6.5,1.08.9,1.56,1.31.12-.09.24-.17.36-.26-.62-.87-1.24-1.74-1.91-2.67,2.79.38,5.49.71,8.18,1.12,5.61.85,9.52,4.2,12.85,8.58,1.82,2.39,4.06,4.46,5.91,6.46-12.51,3.26-24.14,1.91-26.95-14.54Z"/><path class="cls-6" d="M79.23,51.79c1.71-.1,3.18-.19,4.65-.28,0-.1-.01-.19-.02-.29h-6.81c4.02-3.76,13.8-4.84,19.92-2.15,7.16,3.14,10.1,9.6,13.16,16.58-.94-.56-1.61-.92-2.23-1.34-3.78-2.57-8.18-2.8-12.49-3.36-4.48-.58-8.29-2.47-11.57-5.59-1.32-1.26-2.89-2.25-4.61-3.57Z"/><path class="cls-6" d="M23.94,46.94c3.6.78,7.45,1.25,11.04,2.48,8.88,3.04,12.7,9.9,11.19,19.19-.16.95.17,1.99.21,2.33-2.51-1.49-5.17-3.41-8.11-4.73-5.01-2.25-8.19-5.83-9.99-11.01-.98-2.82-2.78-5.35-4.34-8.26Z"/><path class="cls-6" d="M7.88,344.01c6.12.48,12.07,1.5,16.76,5.9,4.61,4.33,5.69,10.32,7.12,16-2.35-.46-4.89-.98-7.45-1.45-5.94-1.08-9.67-4.47-10.89-10.43-.8-3.88-2.33-7.31-5.54-10.03Z"/><path class="cls-6" d="M69.77,353.93c-.15-1.25-.23-1.92-.31-2.6-.09.08-.19.13-.2.19-.07.31-.11.62-.19,1.07-.35-.23-.57-.33-.73-.48-4.75-4.37-8.26-9.39-7.84-16.21.15-2.45.81-4.87,1.22-7.3.34-2.01.65-4.03.86-5.34,2.53,2.98,5.5,6.26,8.22,9.73,3.93,5.02,4.64,10.5,1.66,16.27-.73,1.43-1.6,2.79-2.69,4.67Z"/><path class="cls-6" d="M39.4,200.83c1.15.42,2.29.84,3.83,1.41-2.92,1.25-5.4,2.62-8.06,3.38-4.05,1.16-7.8,0-11.05-2.59-3.06-2.44-6.01-5.02-8.92-7.46,11.69-4.08,22.51-3.27,31.15,6.76-2.12-.63-4.46-1.33-6.8-2.02-.05.17-.1.34-.16.51Z"/><path class="cls-6" d="M51.74,214.27c7.82,6.99,13.02,15.59,14.26,26.41,1.37,11.96-3.87,21.71-10.06,31.26-4.59,7.08-8.8,14.41-13.23,21.6-1.06,1.72-2.33,3.32-3.5,4.98-.23-.08-.46-.16-.69-.25.72-2.43,1.05-5.07,2.23-7.25,3.09-5.69,6.46-11.24,9.89-16.74,2.84-4.57,6.05-8.91,8.86-13.5,6.33-10.33,5.62-21.14,1.06-31.72-2.27-5.26-5.87-9.94-8.81-14.8Z"/><path class="cls-6" d="M18.45,157.37c-2.52-.67-4.95-1.13-7.25-1.95-4.36-1.56-6.83-4.79-8-9.27-.87-3.31-2.19-6.49-3.2-9.4,12.51,1.54,19.63,6.76,18.45,20.62Z"/><path class="cls-6" d="M43.51,174.47c-10.22-5.86-19.39-23.42-16.85-32.01,1.67,12.24,7.62,22.98,16.66,29.77-8.84-12.58-12.98-26.04-7.98-41.2-2.24,9.21-1.03,18.11,2.63,26.8-1.1-10.28-.13-20.19,5.04-29.35l.72.09c-.14,1.09-.05,2.29-.47,3.26-4.12,9.38-4.7,18.99-1.98,28.8.63,2.28,1.32,4.77,2.75,6.56,2.23,2.8,1.33,4.89-.52,7.3Z"/><path class="cls-6" d="M177.09,53.71c8.65.84,15.32,4.06,18.12,12.79.93,2.89,2.49,5.39,5.64,6.66-3.51,1.01-12.5-1.5-16.23-4.23-5.12-3.75-5.41-9.83-7.53-15.21Z"/><path class="cls-6" d="M70.88,361.07c1.53-8.06,6.54-12.16,14.74-12.04,3.3.05,6.6.39,10.02.6-2.66,3.06-5.02,6.42-8,9.08-4.62,4.11-10.07,4.88-15.85,2.37-.25-.11-.59-.01-.91-.01Z"/><path class="cls-6" d="M202.15,33.45c4.63-6.36,11.1-8.54,19.16-5.81,3.44,1.16,6.92,1.73,10.59.48-4.34,3.73-8.26,7.84-14.04,9.38-6.06,1.61-10.96-1.37-15.7-4.05Z"/><path class="cls-6" d="M202.71,0c.47,2.75.85,5.87,1.56,8.91,1.36,5.79.11,10.82-3.95,15.14-1.93,2.05-3.89,4.06-5.94,6.2-.47-3.1-.88-5.8-1.29-8.5-.62-4.07.27-7.83,2.5-11.24,2.41-3.68,4.93-7.29,7.12-10.52Z"/><path class="cls-6" d="M56.4,195.93c-1.64-.43-3.84-1-6.04-1.57-4.46-1.16-7.66-6.38-7.19-11.74.5-5.69,3.81-10.15,6.72-15.66.15,2.72-.04,4.75.42,6.62.8,3.22,2.13,6.3,3.01,9.51.81,2.94,1.28,5.97,1.97,8.95.32,1.4.78,2.76,1.11,3.89Z"/><path class="cls-6" d="M229.34,54.96c-7.83,12.47-21.51,13.41-27.99,3.37.78-.07,1.5-.14,2.9-.26-1.51-.44-2.38-.7-3.31-.97,6.13-2.9,12.23-3.09,18.5-.94,3.16,1.08,6.36.99,9.91-1.2Z"/><path class="cls-6" d="M19.66,216.48c2.1,1.8,4.15,3.47,6.1,5.25,3.65,3.31,5.48,7.61,4.08,12.25-1.88,6.25-4.65,12.24-7.05,18.33-.12.3-.35.55-1.03.52,1.72-4.33,3.44-8.66,5.18-13.06-5.37-3.59-8.35-8.25-7.35-15.02.39-2.65.06-5.41.06-8.27Z"/><path class="cls-6" d="M94.54,316.6c-4.74-.19-8.2-2.04-10.43-5.91-2.84-4.94-2.01-11.7,2.33-18.43-.08,3.73,1.6,6.44,3.87,8.75,3.65,3.71,5.12,7.98,4.01,13.11-.11.49-.1,1.02-.09,1.53,0,.22.14.44.31.96Z"/><path class="cls-6" d="M152.67,68.93c.7-3.31,1.28-7.01,2.28-10.59,1.34-4.82,4.11-8.57,8.95-10.52,1.55-.62,2.37-.21,3.04,1.21,1.83,3.87.59,10.01-2.75,12.7-1.39,1.11-2.99,1.97-4.52,2.91-2.38,1.47-4.76,2.93-7.01,4.3Z"/><path class="cls-6" d="M106.94,28.81c-1.44-6.56-2.1-12.94,3.03-18.49,1.04-1.12,1.43-2.84,2.07-4.19,7.78,10.08,3.07,20.91-5.09,22.68Z"/><path class="cls-6" d="M47.82,224.24c-2.03,11.34-3.42,14.95-16.32,15.85,1.55-3.64,1.44-8.23,5.28-10.51,3.46-2.05,7.26-3.54,11.03-5.34Z"/><path class="cls-6" d="M217.42,94.97c-7.64-3.95-9.61-8.1-7.83-16.45.34-1.61.33-3.3.5-5.18,1.79,1.91,3.53,3.62,5.1,5.48,2.61,3.11,2.93,6.73,2.28,10.61-.29,1.76-.05,3.61-.05,5.53Z"/><path class="cls-6" d="M36.69,74.55c5.18,5.56,7.03,11.91,3.95,19.39-1.05-.76-2.09-1.48-3.09-2.26-3.82-2.95-4.61-6.01-2.91-10.57.79-2.11,1.35-4.31,2.05-6.56Z"/><path class="cls-6" d="M43.97,362.66c14.16,11.32,25.99,24.35,30.55,42.57-5.68-17.42-18.95-29.38-30.55-42.57Z"/><path class="cls-6" d="M180.91,28.69c-1.34,7.77-5.71,10.63-13.15,8.64.31-3.16,2.18-5.13,4.99-6.16,2.62-.96,5.35-1.64,8.16-2.48Z"/><path class="cls-6" d="M74.79,218.57c.07-15.14-9.55-24.59-18.47-34.41,11.71,6.89,22.14,26.09,18.47,34.41Z"/><path class="cls-6" d="M16.51,260.99q-7.5-1.42-9.51-8.22c6.52.14,8.82,2.08,9.51,8.22Z"/><path class="cls-6" d="M144.94,26.53c12.2-.29,24.26-1.46,35.82-5.79-8.39,4.89-25.66,7.62-35.82,5.79Z"/><path class="cls-6" d="M97.01,210.64c-1-8.12-2.01-16.24-2.93-23.69,3,7.08,4.08,15.21,3.66,23.6-.24.03-.49.07-.73.1Z"/><path class="cls-6" d="M67.23,242.51c1.5-4.44,3.01-8.87,4.48-13.21,2.17,2,.51,8.18-3.84,13.42-.21-.07-.42-.14-.64-.2Z"/><path class="cls-6" d="M49.26,114.9c-.93-2.19-.45-3.34,1.83-3.83,2.06-.45,4.03-1.3,6.11-2q-.51,3.3-7.94,5.83Z"/><path class="cls-6" d="M75.86,108.04c-3.67.5-7.19.97-10.61,1.44.54-2.8,4.37-3.45,10.61-1.44Z"/><path class="cls-6" d="M49.87,123.16q-.57-5.38,3.54-6.41c-1.13,2.05-2.18,3.95-3.54,6.41Z"/><path class="cls-6" d="M68.01,111.33c-2.22,1.65-4.3,3.2-6.35,4.72.96-3.81,2.79-4.53,6.35-4.72Z"/><path class="cls-2" d="M115.1,311.72c.61-2.5,1.46-5.08,1.85-7.73,1.24-8.35-1.98-15.08-8.06-20.56-6.82-6.14-15.04-8.53-24.08-8.52-1.06,0-2.12,0-3.44,0,6.5-5.71,24.31-1.38,32.46,7.59,7.32,8.05,7.91,22.87,1.27,29.22Z"/><path class="cls-2" d="M83.15,250.95c.24,11.65-6.86,20.9-18.72,23.98,7.49-7.47,14.32-14.76,18.72-23.98Z"/></g></svg>