<?xml version="1.0" encoding="UTF-8"?><svg id="Layer_2" xmlns="http://www.w3.org/2000/svg" viewBox="0 0 245 619.16"><defs><style>.cls-1{fill:#000;stroke-width:0px;}</style></defs><g id="Layer_1-2"><path class="cls-1" d="M156.17,117.18c-3.88,4.77-7.59,9.69-11.66,14.29-12.18,13.76-27.5,23.6-42.67,33.59-13.68,9.01-27.33,18.1-38.38,30.35-14.93,16.55-23.81,35.78-23.32,58.44.53,24.72,11.58,43.61,32.14,57.51,7.9,5.34,16.58,5.83,25.22,6.99,17.25,2.31,34.39,4.85,51,10.31,18.54,6.09,34.3,16.15,45.37,32.4,14.88,21.84,15.6,45.5,7.23,69.83-4.28,12.45-10.92,23.62-20.74,32.56-8.17,7.44-16.65,14.52-24.98,21.78-11.19,9.75-20.99,20.53-25.98,34.92-1.46,4.22-2.37,8.57-3.36,13.56-1.21-5.1.21-12.4,3.69-20.53,2.73-6.37,6.39-12.22,10.49-18.43-11.83,6.56-24.1,24.78-26.98,40.21-3.27,17.56,4.12,31.81,14.96,44.85-11.29-9.78-19.13-18.02-18.1-43.38-4.98,15.38-6.07,31.16-4.68,47.17-5.1-26.99-1.02-52.32,14.4-76.54-5.6,2.99-10.32,5.71-15.22,8.09-12.61,6.12-25.82,10.21-39.92,7.47-22.1-4.3-37.75-23.6-39.2-47.12-.99-15.92,3.57-29.88,14.14-41.87-2.12,3.88-4.44,7.66-6.31,11.66-6.77,14.46-7.39,29.38-2.16,44.36,8.56,24.49,32.91,36,58.89,27.82,14.76-4.65,28.01-12.35,40.18-21.83,5.06-3.94,10.25-7.69,15.5-11.66-13.8,4.36-27.44,5.45-40.93-.87,1.88.3,3.76.61,5.64.89,1.91.29,3.81.67,5.73.83,15.89,1.32,30.47-1.55,43.65-11.44,15.29-11.48,27.42-25.09,34.58-43.04,14.99-37.58.85-74.39-35.54-92.14-15.37-7.5-31.75-11.25-48.55-13.35-9.03-1.13-17.74-3.05-25.91-7.11-.52-.26-1.1-.38-1.75-.34,9.15,5.86,19.08,9.92,29.32,13.41,12.78,4.36,25.82,7.98,38.08,13.82,16.38,7.8,29.99,18.63,38.13,35.2,14.39,29.31,1.3,67.3-27.76,80.21-13.5,6-27.08,5.9-39.87-2.33-15.15-9.75-18.12-29.71-6.24-41.57,6.17-6.16,13.63-8.22,22.16-5.79-1.23,0-2.46,0-3.68,0-9.95.04-17.57,4.34-21.79,13.3-4.32,9.17-2.94,18.18,3.36,26.12,9.21,11.6,27.06,15.22,42.4,8.84,22.45-9.33,35.35-34.74,30.04-59.93-3.74-17.74-14.55-30.16-30.68-37.88-11.28-5.4-23.44-7.88-35.89-8.33-10.94-.39-21.9-.09-32.84-.23-2.25-.03-2.59.86-2.29,2.76.82,5.21,2.65,10.06,5.07,14.73-3.7-3.99-6.16-8.67-6.6-13.97-.31-3.74-2.11-4.51-5.29-4.89-18.9-2.28-34.9-10.41-47.71-24.5-13.2-14.53-19.87-31.97-22.07-51.27-3.34-29.23,2.57-56.86,14.55-83.43.39-.87,1.26-1.67.77-3.1C9.83,204.85,1.87,223.39.04,244.67c0-2.14-.09-4.29.03-6.43.12-2.18.39-4.36.72-6.52.35-2.29.76-4.57,1.28-6.83,3.39-14.89,10.41-27.98,20.47-39.34,5.59-6.31,9.26-13.89,14.64-20.34,13.45-16.12,30.65-26.47,50-33.72.31-.12.72.02,1.79.07-21.5,10.52-41.2,22.34-54.59,42.72.72,0,1.02.09,1.11-.01,13.34-15.81,30.74-25.99,48.79-35.3,13.27-6.84,26.78-13.26,39.17-21.68,11.27-7.66,21.52-16.51,29.28-27.77,18.19-26.41,21.06-54.11,6.11-83.04-.1-.2-.09-.46-.14-.71,2.62,1.82,3.05,2.12,5.3,6.03,14.47,25.2,15.5,51.49,6.27,78.59-3.14,9.22-8.05,17.51-13.44,25.54-.22.42-.44.84-.65,1.26ZM164.17,80c-.32.49-.7.94-.95,1.46-8.02,16.45-19.73,29.7-34.62,40.27-13.93,9.89-29.4,17-44.36,25.03-14,7.51-27.7,15.47-38.4,27.54-9.78,11.04-16.77,23.56-19.29,38.34,6.17-7.78,12.52-15.35,19.76-22.14,15.89-14.9,34.24-26.36,52.61-37.82,20.48-12.78,39.29-27.43,53.24-47.5,5.37-7.72,9.53-16.04,12.02-25.19ZM112.19,151.79c-1.5-.63-2.12.26-2.81.69-12.62,7.97-25.52,15.48-37.84,23.94-17.69,12.14-33.3,26.33-44.98,44.51-.91,1.41-1.68,2.72-1.64,4.58.33,13.34,2.23,26.38,6.58,39.04,2.19,6.36,8.14,18.07,11.14,21.02-.52-1.37-.86-2.31-1.23-3.24-4.22-10.69-6.02-21.82-5.53-33.25.97-22.69,10.56-41.63,25.85-57.94,10.18-10.86,21.98-19.79,34.27-28.1,5.36-3.63,10.64-7.39,16.19-11.25ZM13.8,277.85c.54,2.88,1.01,5.77,1.62,8.63,7.23,33.72,31.64,56.8,64.14,60.66.87.1,2.45.29,2.52.07.8-2.54,1.63-5.12,1.92-7.75.21-1.94-1.94-1.68-3.14-2.06-17.98-5.73-33.98-14.7-46.96-28.62-8.5-9.11-15.41-19.24-20.11-30.94ZM98.96,331.57c-20.03-8.06-39.3-17.28-53.96-33.87-14.71-16.65-21.88-36.58-25.54-58.09-2.78,46.78,38.17,83.79,79.51,91.96ZM137.8,348.73c-.68-.28-1.34-.69-2.05-.83-15.89-3.15-32.11-4.5-47.82-8.63-1.64-.43-2.19.31-2.58,1.86-1.54,6.13-.74,7.23,5.42,7.33,15.66.25,31.34-2.29,47.03.28Z"/><path class="cls-1" d="M97.3,394.14c-22.65,5.13-43.93,5.76-58.71-16.5.73-.93,1.01-.38,1.16-.18,12.15,15.86,28.47,19.6,47.23,16.36,7.15-1.23,13.83-4.02,20.67-6.26,12.26-4.01,24.67-5.32,37.23-1.72,16.45,4.72,27.17,18.86,26.58,34.68-.55,14.68-13.95,25.45-27.67,22.25-3.27-.76-4.96-1.84-7.03-4.7,3.24,1.59,6.08,3,9.31,3.28,12.91,1.11,23.4-10.86,21.24-24.61-1.69-10.83-7.74-18.69-17.61-23.37-19.44-9.23-45.58-2.8-58.55,14.42-17.01,22.59-9.94,59.83,27.46,65.89,14.66,2.38,28.35-1.76,41.43-8.06,5.21-2.51,10.4-5.12,15.61-8-1.36,1.14-2.67,2.36-4.09,3.42-13.97,10.36-29.25,17.19-46.98,17.35-32.76.29-53.59-26.41-45.4-58.14,2.5-9.7,7.48-17.71,15.6-23.7.87-.64,2.07-1,2.52-2.41Z"/><path class="cls-1" d="M97.77,77.64c-1.59.26-2.55.42-4.29.7,3.48.76,6.21.6,9.18.04-10.81,9.83-30.22,10.41-42.77,1.22-9.01-6.6-14.03-16.36-19.67-25.75,6.33,5.56,13.78,5.54,21.25,4.45,13.66-2,24.22,2.47,31.61,14.21,1.16,1.84,2.54,3.5,4.69,5.12Z"/><path class="cls-1" d="M126.54,0c5.59,7.36,8.08,15.73,8.63,24.65,1.7,27.93-11.54,47.85-33.86,63.01-9.46,6.42-19.92,10.76-30.26,15.27-15.98,6.97-25.3,19.69-31.91,35.03-.64,1.48-.58,3.05-.41,4.57.87,7.8-2.72,13.31-8.76,17.72-4.13,3.01-9.11,4.89-12.53,9.27,1.85-4.49.82-9,.85-13.46.06-8.98,3.85-15.59,12.59-18.22,6.04-1.82,9.46-5.11,11.72-11.12,4.16-11.05,12.65-18.66,22.88-24.16,7.24-3.9,14.84-7.13,22.22-10.78,16.61-8.22,30.1-19.84,38.3-36.72,8.56-17.6,9.94-35.5.67-53.43-.21-.41-.73-.79-.11-1.63Z"/><path class="cls-1" d="M156.17,117.18c.22-.42.44-.84.65-1.26,2.11-.15,1.69,1.59,1.8,2.67,2.39,23.29-5.28,42.24-24.47,56.1-6.13,4.43-13.12,7.04-20.33,9.14-10.79,3.16-21.3,6.91-30.2,14.16-19.92,16.22-24.04,43.42-9.31,65.29,14.1,20.93,33.28,36.33,55.1,48.62,10.89,6.13,22.51,10.8,33.62,16.52,5.75,2.96,11.16,6.37,15.65,11.17-6.76-4.57-13.92-8.4-21.25-11.94-14.24-6.88-29-12.8-42.25-21.58-15.64-10.36-29.71-22.42-41.4-37.3-17.02-21.67-16.52-59.57,13.52-77.32,8.57-5.07,17.81-8.01,27.25-10.54,15.3-4.11,27.12-12.68,34.96-26.58,4.21-7.46,6.09-15.55,6.56-23.99.24-4.37.08-8.75.1-13.13Z"/><path class="cls-1" d="M180.97,467.03c1.79-.2,3.15.13,4.57-.27,12.69-3.56,23.87,1.15,30.31,12.63,1.57,2.8,3.11,5.62,4.78,8.35,2.01,3.29,5,5.47,8.7,6.96-10.13,3.36-27.27.97-35.51-4.86-7.79-5.51-10.78-13.72-12.85-22.81Z"/><path class="cls-1" d="M95.49,522.57c-6.5,4.16-6.04,10.73-5.71,16.88.76,14.15-4.93,24.63-16.94,31.91-3.74,2.27-7.14,5.02-10.71,7.84,3.05-6.3,2.14-12.88,1.74-19.37-.7-11.21,3.78-19.8,13-25.89,6.07-4,12.4-7.59,18.62-11.37Z"/><path class="cls-1" d="M70.8,247.29c1.68,1.44,3.8,3.32,6,5.1,1.83,1.47,1.5.58.68-.69.28-.17.57-.5.85-.5,3.24.01,5.8-2,8.73-2.91,7.22-2.25,13.95-.82,20.5,2.5,6.25,3.16,12.57,6.16,20.04,4.07-7.4,5.99-14.32,12.68-24.07,14.5-9.62,1.79-17.83-1.18-24.4-8.37-3.83-4.2-6.42-9.22-8.34-13.69Z"/><path class="cls-1" d="M115.77,60.65c1.14.81,2.25-.14,3.76.08-2.88,3.26-6.32,3.9-10.09,3.41-8.91-1.16-17-10.16-17.45-19.5-.13-2.69-.06-5.41.2-8.1.47-4.79.03-9.43-1.63-14.13,6.32,5.14,13.7,8.63,19.54,14.21,5.8,5.55,7.91,12.47,7.12,20.37-.14,1.35-.27,2.71-1.44,3.66Z"/><path class="cls-1" d="M158.8,282.63c-5.79,2.44-9.73,7.15-14.44,10.85-10.72,8.41-25.64,8.68-36.97.42,4.57,1.27,9.1,1.89,13.82-.79-2.97-.02-5.52.99-8.26.41,2.29-4.64,3.89-9.64,8.81-12.45,6.37-3.64,12.97-3.82,19.72-1.59,5.59,1.85,11.17,3.58,17.32,3.16Z"/><path class="cls-1" d="M4.56,80.71c6.55,1.33,12.06.39,17.57.42,9.79.06,17.33,5.37,20.16,14.84.55,1.85,3.92,2.99,1.79,5.73-.07.08,1.66.8,2.64.96,4.36.73,8.68.19,13.79-.7-15.86,6.57-36.91,7.42-46.52-10.62-1.02-1.91-2.34-3.71-3.77-5.34-1.41-1.62-3.14-2.96-5.67-5.28Z"/><path class="cls-1" d="M114.21,569.24c25.51,22.35,19.45,29.04,18.06,49.92-2.27-8.04-7.97-12.05-13.22-16.49-10.66-9.03-12.21-19.66-4.84-33.43Z"/><path class="cls-1" d="M124.06,69.56c2.3,3.59,4.54,6.56,5.54,10.22,2.33,8.49.7,16.08-5.51,22.41-4.98,5.09-11.4,8.65-15.54,14.74.76-3.87.5-7.52-.11-11.23-1.67-10.22.03-19.4,8.23-26.66,2.87-2.55,5.27-5.6,7.38-9.47Z"/><path class="cls-1" d="M73.67,301.84c-4.05-5.91-10.36-9.23-15.19-14.17-6.83-6.99-8.04-18.5-2.77-26.76,1.64-2.58,3.58-4.98,5.63-7.8,1.13,5.18,3.82,9.16,6.76,12.96,4.93,6.36,6.62,13.57,5.77,21.42-.51,4.72-.91,9.41-.2,14.35Z"/><path class="cls-1" d="M117.39,542.2c2.21,1.13,5.07,2.54,7.89,4.04,6.39,3.4,9.92,8.64,10.67,15.92.97,9.41,4.83,12.56,14.23,12.16,2.6-.11,5.13-.53,7.55-1.42,2.38-.88,4.67-1.97,7.11-3.02-4.34,5.1-13.46,7.78-22.19,6.5-8.49-1.25-15.56-5.23-21.22-11.61-5.88-6.63-4.65-14.85-4.06-22.56Z"/><path class="cls-1" d="M41.63,115.12c-7.15,19.74-22.1,21.96-39.93,16.86,4.6-3.09,7.9-8.05,12.29-11.93,4.32-3.81,9.55-4.88,15.12-4.32,4.34.43,8.66,1.11,12.52-.61Z"/><path class="cls-1" d="M51.47,470.11c3.73,9.63,9.27,18.81,7.18,29.73-1.3,6.79.22,11.99,6.79,15.27-7.03-3.43-14.59-5.88-19.31-12.68-4.35-6.27-4.43-12.31-.23-18.66,2.75-4.16,5.48-8.29,5.57-13.66Z"/><path class="cls-1" d="M129.92,536.78c.97-.64,1.63.65,3.22-.1,7.32-3.44,14.92-3.66,21.78,1.66,5.37,4.16,9.06,9.69,12.41,15.71-4.69-3.85-10.01-3.14-15.34-2.67-11.42,1.02-19.91-4.65-22.07-14.6Z"/><path class="cls-1" d="M103.99,192.75c1.98,2.38,3.71,4.42,5.41,6.5,5.22,6.4,5.71,13.24,1.96,20.51-2.09,4.06-5.23,7.57-6.3,12.3-1.34-4.83-4.17-8.81-6.15-13.19-3.34-7.39-2.24-14.28,1.79-20.97.99-1.64,2.07-3.24,3.29-5.15Z"/><path class="cls-1" d="M118.37,190.41c17.86-2.26,27.77,6.12,30.68,23.6-4.51-3.41-10.25-3.31-15.49-4.98-6.42-2.06-10.23-6.62-12.44-12.7-.79-2.16-1.5-4.32-2.76-5.91Z"/><path class="cls-1" d="M78.08,494.82c5.12,1.04,9.52-.57,13.86-2.77,8.72-4.42,16.86-3.66,24.38,3.04-.91.19-1.75.37-3.28.69,2.4.48,3.05,1.01,1.36,2.63-6.61,6.38-14.35,7.72-22.84,5.15-5.21-1.57-9.5-4.86-13.48-8.75Z"/><path class="cls-1" d="M164.6,523.61c-1.11-3.13-1.7-5.1-2.49-6.99-3.69-8.76-2.75-16.72,3.49-24.13,4.16-4.93,3.97-5.09,7.35.3,4.04,6.45,3.46,13.15-1.68,19.21-1.41,1.67-2.85,3.32-4.23,5.02-1.29,1.6-1.81,3.58-2.44,6.59Z"/><path class="cls-1" d="M60.77,528.05c-4.75,3.87-4.76,11.4-11.12,14.53-5.83,2.87-12.2,2.51-17.82,4.18,4.55-13.93,12.61-22.89,28.94-18.71Z"/><path class="cls-1" d="M208.93,453c2.34-1.75,4.72-3.44,7-5.26,14.65-11.68,18.89-27.47,17.12-45.22-2.33-23.37-13.29-42.45-30.34-58.25-1.98-1.84-3.97-3.67-5.94-5.52-.17-.16-.24-.44-.37-.68,1.09-.71,1.67.28,2.29.77,19.52,15.83,32.84,35.54,36.47,60.76,2.45,17.01-.41,32.92-13.24,45.71-3.64,3.63-7.82,6.44-12.97,7.7Z"/><path class="cls-1" d="M189.65,313.46c-3.66.69-6.81,2.36-9.9,4.16-5.92,3.44-12.17,4.23-18.55,1.72-4.8-1.89-9.96-1.12-14.79-2.56-1.71-.51-3.53-.69-5.51-2.02,3.3.2,5.95,1.3,8.78,1.51,5.28.39,9.75-.93,14.02-4.16,8.04-6.07,17.99-5.43,25.94,1.34Z"/><path class="cls-1" d="M72.79,400.8c-5.28,11.91-14.48,14.21-30.53,7.63,11.86-9.26,14.6-9.95,30.53-7.63Z"/><path class="cls-1" d="M245,455.26c-3.42-1.64-6.14-2.76-8.67-4.22-3.11-1.79-4.52-4.84-5.03-8.24-.32-2.12-1.1-5.08.39-6.25,1.7-1.34,4.41.14,6.45,1.08,3.81,1.76,5.76,4.94,5.99,9.13.14,2.53-.06,5.09.87,8.49Z"/><path class="cls-1" d="M129.43,181.35c8.43-6.21,16.27-3.9,23.57,1.6-7.69,6.66-17.88,5.97-23.57-1.6Z"/><path class="cls-1" d="M120.6,372.2c32.77-5.28,59.53,16.27,62.17,34.87-4.83-12.38-13.43-21.08-25.14-27.16-11.69-6.07-24.14-7.61-37.02-7.7Z"/><path class="cls-1" d="M179.07,471.39c-8.51,9.26-18.42,16.95-27.97,25.03,8.28-9.51,17.39-18.09,27.97-25.03Z"/><path class="cls-1" d="M206.75,431.11c-2.28,12.82-9.82,22.32-19.16,30.69,6.77-9.99,15.29-18.87,19.16-30.69Z"/><path class="cls-1" d="M100.08,104.73c-6.84,8.05-15.79,12.21-26.05,13.89,9.53-3.06,18.37-7.36,26.05-13.89Z"/></g></svg>