<?xml version="1.0" encoding="UTF-8"?>
<svg id="Layer_2" data-name="Layer 2" xmlns="http://www.w3.org/2000/svg" version="1.1" viewBox="0 0 45 33.9">
  <defs>
    <style>
      .cls-1 {
        fill: #fff;
        stroke: #000;
        stroke-miterlimit: 10;
      }
    </style>
  </defs>
  <g id="Layer_1-2" data-name="Layer 1-2">
    <path class="cls-1" d="M20.9,19.4h5.1c1.3,0,2.4-1.1,2.4-2.4s-1.1-2.4-2.4-2.4h-5.3l9.8-9.8c.9-.9.9-2.4,0-3.4s-2.4-.9-3.4,0l-13.2,13.2h-4.9l9.8-9.8c.9-.9.9-2.4,0-3.4s-2.4-.9-3.4,0L1.7,15.3c-.9.9-.9,2.4,0,3.4l13.8,13.8c.5.5,1.1.7,1.7.7s1.2-.2,1.7-.7c.9-.9.9-2.4,0-3.4l-9.7-9.7h4.9l13.1,13.1c.5.5,1.1.7,1.7.7s1.2-.2,1.7-.7c.9-.9.9-2.4,0-3.4l-9.7-9.7Z"/>
    <path class="cls-1" d="M41.6,14.6h-9.6c-1.3,0-2.4,1.1-2.4,2.4s1.1,2.4,2.4,2.4h9.6c1.3,0,2.4-1.1,2.4-2.4s-1.1-2.4-2.4-2.4Z"/>
  </g>
</svg>