<svg width="23" height="23" viewBox="0 0 23 23" fill="none" xmlns="http://www.w3.org/2000/svg">
  <path d="M11.035 20.4107C16.5595 20.4107 21.07 16.083 21.07 10.7054C21.07 5.32785 16.5595 1 11.035 1C5.51058 1 1 5.32785 1 10.7054C1 16.083 5.51058 20.4107 11.035 20.4107Z" fill="#040403" stroke="currentColor" stroke-width="1.5625"/>
  <path d="M10.2801 15.6018C7.47165 15.6018 5.81964 13.3326 5.81964 10.51C5.81964 7.57655 7.63683 5.19669 11.106 5.19669C14.6855 5.19669 15.8969 7.63197 15.952 9.01555H13.3638C13.3088 8.24073 12.6479 7.07848 11.051 7.07848C9.34399 7.07848 8.24261 8.57283 8.24261 10.3993C8.24261 12.2257 9.34399 13.72 11.051 13.72C12.5929 13.72 13.2537 12.5024 13.5291 11.2848H11.051V10.2886H16.2507V15.3804H13.9696V12.1703C13.8043 13.3326 13.0885 15.6018 10.2801 15.6018Z" fill="currentColor"/>
</svg>
