<svg viewBox="0 0 39 38" fill="none" xmlns="http://www.w3.org/2000/svg">
  <path fill-rule="evenodd" clip-rule="evenodd" d="M0.700012 5.99999C0.700012 4.62086 1.19519 3.29822 2.07661 2.32303C2.95803 1.34784 4.15349 0.799988 5.40001 0.799988H33.6C34.8465 0.799988 36.042 1.34784 36.9234 2.32303C37.8048 3.29822 38.3 4.62086 38.3 5.99999V32C38.3 33.3791 37.8048 34.7018 36.9234 35.6769C36.042 36.6521 34.8465 37.2 33.6 37.2H5.40001C4.15349 37.2 2.95803 36.6521 2.07661 35.6769C1.19519 34.7018 0.700012 33.3791 0.700012 32V5.99999ZM8.43856 9.36179C8.87925 8.87436 9.47688 8.60054 10.1 8.60054C10.7231 8.60054 11.3208 8.87436 11.7615 9.36179L18.8115 17.1618C19.252 17.6494 19.4995 18.3106 19.4995 19C19.4995 19.6894 19.252 20.3506 18.8115 20.8382L11.7615 28.6382C11.3182 29.1118 10.7246 29.3739 10.1085 29.3679C9.49231 29.362 8.9029 29.0886 8.46719 28.6065C8.03148 28.1245 7.78433 27.4723 7.77898 26.7906C7.77362 26.1089 8.01049 25.4522 8.43856 24.9618L13.8271 19L8.43856 13.0382C7.99801 12.5506 7.75051 11.8894 7.75051 11.2C7.75051 10.5106 7.99801 9.84936 8.43856 9.36179ZM21.85 24.2C21.2268 24.2 20.629 24.4739 20.1883 24.9615C19.7476 25.4491 19.5 26.1104 19.5 26.8C19.5 27.4896 19.7476 28.1509 20.1883 28.6385C20.629 29.1261 21.2268 29.4 21.85 29.4H28.9C29.5233 29.4 30.121 29.1261 30.5617 28.6385C31.0024 28.1509 31.25 27.4896 31.25 26.8C31.25 26.1104 31.0024 25.4491 30.5617 24.9615C30.121 24.4739 29.5233 24.2 28.9 24.2H21.85Z" fill="#FDFFFC"/>
</svg>
